<svg version="1.2" xmlns="http://www.w3.org/2000/svg" viewBox="0 0 150 173" width="150" height="173"><style>.a{fill:#293252}.b{fill:#fff}.c{fill:#e0bd30}</style><path fill-rule="evenodd" class="a" d="m149.2 129.2l-74.6 43-74.6-43v-86.1l74.6-43.1 74.6 43.1z"/><path fill-rule="evenodd" class="b" d="m74.6 41.5c1.9 0 0.1 3.6 1 5.4l4.8 24.6 34.8 0.4c1.9 0.3 9.4-1.6 10 0.4 0.6 1.9-5.8 6.6-7.1 8l-25.9 26.6 5.8 27.3c0.3 2 1.5 3.7 0 4.8-1.6 1.2-2.6-1.2-4.3-2.1l-18.2-14.3-21.3 15.2c-1.7 0.9-3.3 2.3-3.3 0.3 0-3.5-0.3-5-0.4-6.9l6.7-26.5-25.3-22.7c-1.4-1.4-8.5-6.6-7.9-8.5 0.6-1.9 7.5-0.4 9.5-0.7l33-0.7c0 0.5 5.4-24.1 5.4-24.1 0.7-1.8 0.7-6.6 2.7-6.5zm-0.5 14.7l-4.9 24.7c-0.8 1.6-2.8-1.9-4.5-1.6l-23.8 0.4 17.8 14.8c1.2 1.3 3.5 4.7 3.2 6.4l-6.8 26.9 17.5-12.9c1.5-0.8 3.3-0.8 4.8 0l15.1 10.3-5.1-23c-0.3-1.7 0.6-3.3 1.8-4.5l18.9-18.2-24 0.5c-1.6-0.2-3.9 2.2-4.6 0.6z"/><path fill-rule="evenodd" class="c" d="m83.3 99h-17.4l8.5-35zm-5.1-49.3c-0.6-2.4-2-18.7-3.6-18.7-1.5 0-3.6 16.6-4.2 19l-13.8 53-4.9 19.4c-0.8 3.2-3.2 16.5-1.2 17.8 2 1.4 7.5-9.6 8.3-12.9l5.2-20.2h21.4l5 20.2c0.8 3.3 6 14.1 8 12.8 2-1.4 0-14.5-0.8-17.7l-4.9-19.4z"/></svg>